<?xml version="1.0" encoding="UTF-8"?>
<svg xmlns="http://www.w3.org/2000/svg" version="1.1" viewBox="0 0 80 15" width="80" height="15">
  <rect height="14.000277" width="79.000153" y="0.49972346" x="0.49999997" fill="#ffffff" stroke="#000000"/>
  <rect height="11.200222" width="76.037643" y="1.8997512" x="1.9812529" fill="#000000"/>
  <path d="M 1.9812133,1.911761 V 13.111982 H 22.061847 c 1.292295,-1.633655 2.164387,-3.5322506 2.164387,-5.6001102 0,-2.0540646 -0.857082,-3.9734186 -2.133527,-5.6001108 z" fill="#abb1aa"/>
  <path type="arc" cx="296.35416" cy="264.3577" rx="22.939548" ry="22.939548" d="m 19.296076,7.4997804 c 0.0019,3.4918446 -2.990968,6.3239696 -6.685152,6.3262216 -3.6941929,0.0018 -6.6911032,-2.826742 -6.6932485,-6.3185596 0,-0.00269 0,-0.00538 0,-0.00807 -0.0019,-3.4918448 2.9909586,-6.3239696 6.6851515,-6.3260063 3.694668,-0.00179 6.691104,2.8267508 6.693249,6.3185955 0,0.00179 0,0.00449 0,0.00718 z" fill="#ffffff"/>
  <path d="m 18.044589,2.3501036 c 1.483348,1.401999 2.225132,3.1190095 2.225132,5.1496768 0,2.0311069 -0.728931,3.7296706 -2.186792,5.0956566 -1.547146,1.438694 -3.375685,2.157799 -5.485588,2.157799 -2.084435,0 -3.8812981,-0.713264 -5.3901142,-2.139774 -1.5090534,-1.426313 -2.263471,-3.1307178 -2.263471,-5.1136816 0,-1.9825242 0.7544176,-3.6990861 2.263471,-5.1496768 1.4704858,-1.40244763 3.2673482,-2.10356377 5.3901142,-2.10356377 2.148489,0 3.963929,0.70110717 5.447248,2.10356377 z M 8.2058837,3.2933078 c -1.2540877,1.1972519 -1.880899,2.5996995 -1.880899,4.2084733 0,1.6083432 0.6206222,2.9988759 1.8616199,4.1715989 1.2412255,1.173162 2.7188594,1.759528 4.4333564,1.759528 1.714507,0 3.204737,-0.592206 4.471449,-1.777301 1.202677,-1.100733 1.804248,-2.4847162 1.804248,-4.1538259 0,-1.6564772 -0.611338,-3.0625046 -1.833294,-4.2174541 -1.221719,-1.1547252 -2.702438,-1.7323255 -4.442403,-1.7323255 -1.739965,9e-6 -3.2116377,0.5805252 -4.4140773,1.7413063 z M 11.506086,6.7941694 C 11.314453,6.3992812 11.027602,6.2017206 10.64503,6.2017206 c -0.6763232,0 -1.0143664,0.4304346 -1.0143664,1.2908644 0,0.8606181 0.3380432,1.2906132 1.0143664,1.2906132 0.446608,0 0.7656,-0.2094664 0.957005,-0.6293232 l 0.937469,0.4718309 c -0.446845,0.7503896 -1.117208,1.1256742 -2.011116,1.1256742 -0.6894043,0 -1.2417003,-0.1997947 -1.656404,-0.5989534 C 8.4565683,8.7528284 8.2494633,8.202018 8.2494633,7.4997804 c 0,-0.6898744 0.2137687,-1.2375356 0.6415624,-1.6431989 0.4277938,-0.4056902 0.9605544,-0.6084367 1.5992693,-0.6084367 0.944854,0 1.621405,0.3519218 2.030395,1.0550477 z m 4.410517,0 C 15.724724,6.3992812 15.443588,6.2017206 15.07291,6.2017206 c -0.689889,0 -1.035079,0.4304346 -1.035079,1.2908644 0,0.8606181 0.34519,1.2906132 1.035079,1.2906132 0.447329,0 0.760597,-0.2094664 0.939396,-0.6293232 l 0.958418,0.4718309 c -0.446133,0.7503896 -1.115556,1.1256742 -2.007793,1.1256742 -0.688465,0 -1.239564,-0.1997947 -1.654031,-0.5989534 -0.413745,-0.3995983 -0.621078,-0.9504087 -0.621078,-1.6526463 0,-0.6898744 0.210428,-1.2375356 0.631083,-1.6431989 0.420409,-0.4056902 0.955571,-0.6084367 1.605952,-0.6084367 0.943183,0 1.618785,0.3519218 2.026341,1.0550477 z" fill="#000000"/>
  <path d="m 29.058259,6.8678283 c 0.242412,9.3e-6 0.426216,-0.050028 0.551421,-0.1500364 C 29.734875,6.617774 29.797473,6.4702391 29.797483,6.2751965 29.797473,6.082646 29.734873,5.9363618 29.60968,5.8363345 29.484475,5.7338151 29.300671,5.6825555 29.058259,5.6825461 H 28.20717 v 1.1852822 h 0.851089 m 0.05194,2.4493577 c 0.30901,0 0.540756,-0.061321 0.695271,-0.1838049 0.157161,-0.1225211 0.235746,-0.3075674 0.235746,-0.5551297 0,-0.2425594 -0.07722,-0.4238537 -0.231757,-0.5438827 C 29.654967,7.9118382 29.421877,7.8505824 29.110201,7.850573 H 28.20717 v 1.466613 h 0.903031 m 1.430486,-2.0142385 c 0.330309,0.090069 0.586033,0.2563078 0.76719,0.4988672 0.181128,0.2425595 0.271701,0.5401214 0.271711,0.8927137 -10e-6,0.5401307 -0.194478,0.9427226 -0.583386,1.2077946 -0.388918,0.265062 -0.980293,0.397589 -1.774117,0.397589 H 26.66881 V 4.6998014 h 2.30954 c 0.828445,9.3e-6 1.427809,0.1175369 1.798083,0.3525923 0.37293,0.2350646 0.5594,0.6114014 0.5594,1.1290196 0,0.2725761 -0.06794,0.50513 -0.203771,0.6976712 -0.13586,0.1900491 -0.332985,0.3313399 -0.591375,0.423863 m 0.905114,-2.6031461 h 1.68221 l 1.358556,1.9954874 1.358546,-1.9954874 h 1.686208 L 35.257737,7.9405948 V 10.299912 H 33.719386 V 7.9405948 L 31.445801,4.6998014" fill="#ffffff"/>
</svg>
