<?xml version="1.0" encoding="UTF-8"?>
<svg xmlns="http://www.w3.org/2000/svg" version="1.1" viewBox="0 0 36 36" width="36" height="36">
  <path d="M 33.207756,0 H 2.6925208 C 1.1966759,0 0,1.2 0,2.6 V 33.4 C 0,34.8 1.1966759,36 2.6925208,36 H 33.307479 C 34.803324,36 36,34.8 36,33.4 V 2.6 C 35.900277,1.2 34.703601,0 33.207756,0 Z M 10.67036,30.7 H 5.2853186 V 13.5 H 10.570637 V 30.7 Z M 7.9778393,11.1 C 6.2825485,11.1 4.8864266,9.7 4.8864266,8 c 0,-1.7 1.3961219,-3 3.0914127,-3 1.6952909,0 3.0914127,1.4 3.0914127,3.1 0,1.7 -1.3961218,3 -3.0914127,3 z M 30.614958,30.7 H 25.32964 v -8.4 c 0,-2 0,-4.6 -2.792244,-4.6 -2.792244,0 -3.191136,2.2 -3.191136,4.4 v 8.5 H 13.961219 V 13.5 h 5.085872 v 2.3 h 0.09972 c 0.698061,-1.4 2.493075,-2.8 5.085873,-2.8 5.385042,0 6.382271,3.6 6.382271,8.2 z" fill="#181818"/>
</svg>
